<svg width="22" height="22" viewBox="0 0 22 22" fill="none" xmlns="http://www.w3.org/2000/svg">
<path d="M6.68043 0.439941C3.23883 0.439941 0.44043 3.23834 0.44043 6.67994V15.3199C0.44043 18.7615 3.23883 21.5599 6.68043 21.5599H15.3204C18.762 21.5599 21.5604 18.7615 21.5604 15.3199V6.67994C21.5604 3.23834 18.762 0.439941 15.3204 0.439941H6.68043ZM16.7604 4.27994C17.2884 4.27994 17.7204 4.71194 17.7204 5.23994C17.7204 5.76794 17.2884 6.19994 16.7604 6.19994C16.2324 6.19994 15.8004 5.76794 15.8004 5.23994C15.8004 4.71194 16.2324 4.27994 16.7604 4.27994ZM11.0004 5.71994C13.914 5.71994 16.2804 8.08634 16.2804 10.9999C16.2804 13.9135 13.914 16.2799 11.0004 16.2799C8.08683 16.2799 5.72043 13.9135 5.72043 10.9999C5.72043 8.08634 8.08683 5.71994 11.0004 5.71994ZM11.0004 6.67994C8.61963 6.67994 6.68043 8.61914 6.68043 10.9999C6.68043 13.3807 8.61963 15.3199 11.0004 15.3199C13.3812 15.3199 15.3204 13.3807 15.3204 10.9999C15.3204 8.61914 13.3812 6.67994 11.0004 6.67994Z" fill="white"/>
</svg>
